<svg width="20" height="20" viewBox="0 0 20 20" fill="none" xmlns="http://www.w3.org/2000/svg">
<path fill-rule="evenodd" clip-rule="evenodd" d="M10.0259 3.05969C6.50642 3.05969 3.05994 6.48038 3.05994 9.99984C3.05994 13.5193 6.48062 16.9916 10.0001 16.9916C13.5195 16.9916 16.9918 13.5451 16.9918 10.0256C16.9918 6.50618 13.5453 3.05969 10.0259 3.05969ZM1.66675 9.99984C1.66675 5.39746 5.39771 1.6665 10.0001 1.6665C14.6025 1.6665 18.3334 5.39746 18.3334 9.99984C18.3334 14.6022 14.6025 18.3332 10.0001 18.3332C5.39771 18.3332 1.66675 14.6022 1.66675 9.99984ZM9.09709 6.31047C9.09709 5.76901 9.48443 5.38167 10.0259 5.38167C10.5673 5.38167 10.9547 5.76901 10.9547 6.31047C10.9547 6.85192 10.5673 7.23926 10.0259 7.23926C9.48443 7.23926 9.09709 6.85192 9.09709 6.31047ZM10.0259 9.09685C10.5673 9.09685 10.7027 9.48418 10.7027 10.0256V13.9472C10.7027 14.4887 10.5415 14.9018 10.0001 14.9018C9.45863 14.9018 9.33224 14.4887 9.33224 13.9472V10.0256C9.33224 9.48418 9.48443 9.09685 10.0259 9.09685Z" fill="white"/>
</svg>
