<svg width="25" height="24" viewBox="0 0 25 24" fill="none" xmlns="http://www.w3.org/2000/svg">
<path fill-rule="evenodd" clip-rule="evenodd" d="M12.5 20.5C17.4706 20.5 21 16.9706 21 12C21 7.02944 17.4706 3.5 12.5 3.5C7.52944 3.5 4 7.02944 4 12C4 16.9706 7.52944 20.5 12.5 20.5ZM12.5 22.5C18.5751 22.5 23 18.0751 23 12C23 5.92487 18.5751 1.5 12.5 1.5C6.42487 1.5 2 5.92487 2 12C2 18.0751 6.42487 22.5 12.5 22.5Z" fill="#737373"/>
<path d="M5.77551 11H7.77551L7.82675 10.8359C7.93458 10.4907 8.1224 10.1405 8.47045 10.0423C8.56648 10.0152 8.66855 10 8.77551 10C8.88247 10 8.98453 10.0152 9.08056 10.0423C9.42861 10.1405 9.61644 10.4907 9.72426 10.8359L9.77551 11H11.7755C11.7755 10.6363 11.641 9.80534 11.5 9.55855C11.3491 9.29444 11.1413 9.03953 10.8915 8.81656C10.3919 8.37044 9.66278 8 8.77551 8C7.88823 8 7.15915 8.37044 6.65949 8.81656C6.40976 9.03953 6.20193 9.29444 6.05101 9.55855C5.90999 9.80534 5.77551 10.6363 5.77551 11Z" fill="#737373"/>
<path d="M13.5 11H15.5L15.5512 10.8359C15.6591 10.4907 15.8469 10.1405 16.1949 10.0423C16.291 10.0152 16.393 10 16.5 10C16.607 10 16.709 10.0152 16.805 10.0423C17.1531 10.1405 17.3409 10.4907 17.4487 10.8359L17.5 11H19.5C19.5 10.6363 19.3655 9.80534 19.2245 9.55855C19.0736 9.29444 18.8657 9.03953 18.616 8.81656C18.1164 8.37044 17.3873 8 16.5 8C15.6127 8 14.8836 8.37044 14.384 8.81656C14.1342 9.03953 13.9264 9.29444 13.7755 9.55855C13.6345 9.80534 13.5 10.6363 13.5 11Z" fill="#737373"/>
<path fill-rule="evenodd" clip-rule="evenodd" d="M11.2177 17.5308C9.14439 17.1191 7.54938 15.7325 6.7 14.6L8.3 13.4C8.95062 14.2675 10.1556 15.2809 11.6073 15.5692C12.9704 15.8398 14.757 15.5125 16.7628 13.3243L18.2372 14.6757C15.843 17.2875 13.3796 17.9602 11.2177 17.5308Z" fill="#737373"/>
</svg>
