<svg width="25" height="24" viewBox="0 0 25 24" fill="none" xmlns="http://www.w3.org/2000/svg">
<path fill-rule="evenodd" clip-rule="evenodd" d="M12.5 20C16.9183 20 20.5 16.4183 20.5 12C20.5 7.58172 16.9183 4 12.5 4C8.08172 4 4.5 7.58172 4.5 12C4.5 16.4183 8.08172 20 12.5 20ZM12.5 22C18.0228 22 22.5 17.5228 22.5 12C22.5 6.47715 18.0228 2 12.5 2C6.97715 2 2.5 6.47715 2.5 12C2.5 17.5228 6.97715 22 12.5 22Z" fill="#737373"/>
<path fill-rule="evenodd" clip-rule="evenodd" d="M11.5 13.7962V6H13.5V13.7962L15.6534 11.912C15.7573 11.8211 15.9152 11.8317 16.0061 11.9356L16.9939 13.0644C17.0848 13.1683 17.0743 13.3263 16.9704 13.4172L12.5 17.3288L8.02964 13.4172C7.92573 13.3263 7.9152 13.1683 8.00612 13.0644L8.99388 11.9356C9.0848 11.8317 9.24274 11.8211 9.34665 11.912L11.5 13.7962Z" fill="#737373"/>
</svg>
