<svg width="25" height="24" viewBox="0 0 25 24" fill="none" xmlns="http://www.w3.org/2000/svg">
<path fill-rule="evenodd" clip-rule="evenodd" d="M11.5 18C15.366 18 18.5 14.866 18.5 11C18.5 7.13401 15.366 4 11.5 4C7.63401 4 4.5 7.13401 4.5 11C4.5 14.866 7.63401 18 11.5 18ZM11.5 20C13.6138 20 15.5574 19.2713 17.0932 18.0514C17.664 17.598 18.1785 17.0768 18.6245 16.5C19.8003 14.9791 20.5 13.0712 20.5 11C20.5 6.02944 16.4706 2 11.5 2C6.52944 2 2.5 6.02944 2.5 11C2.5 15.9706 6.52944 20 11.5 20Z" fill="#737373"/>
<path d="M22.326 20.674C22.4225 20.5775 22.4238 20.4213 22.3288 20.3233L18.6245 16.5C18.1785 17.0768 17.664 17.598 17.0932 18.0514L20.8232 21.8213C20.9207 21.9199 21.0797 21.9203 21.1777 21.8223L22.326 20.674Z" fill="#737373"/>
</svg>
